<svg width="22" height="20" viewBox="0 0 22 20" fill="none" xmlns="http://www.w3.org/2000/svg">
<path d="M21.8015 3.98142L11.1961 14.5876C10.9292 14.853 10.4972 14.853 10.2302 14.5876L10.017 14.3744L9.78556 14.143L8.78409 13.1415L8.76988 13.1202L4.18353 8.49827C3.91815 8.2329 3.91815 7.7993 4.18353 7.53393L5.62885 6.09018C5.89581 5.82244 6.32625 5.82244 6.5932 6.09018L10.7183 10.2461L19.3903 1.57175C19.6572 1.30559 20.0893 1.30559 20.3546 1.57175L21.8015 3.01866C22.0661 3.28324 22.0661 3.71605 21.8015 3.98142Z" fill="#16A34A"/>
<path d="M17.2136 16.5091C17.2136 17.2776 16.5873 17.9039 15.8173 17.9039H2.79193C2.02188 17.9039 1.39557 17.2776 1.39557 16.5091V2.78877C1.39557 2.0203 2.02188 1.39399 2.79193 1.39399H15.8173C16.5873 1.39399 17.2136 2.0203 17.2136 2.78877L18.2056 1.87103C18.3659 0.74162 17.2247 0 15.8173 0H2.79193C1.24946 0 0 1.24788 0 2.78877V16.5091C0 18.05 1.24946 19.2995 2.79193 19.2995H15.8173C17.3597 19.2995 18.6092 18.05 18.6092 16.5091V8.32999L17.2128 9.84956L17.2136 16.5091Z" fill="#16A34A"/>
</svg>
