<svg width="199" height="28" viewBox="0 0 199 28" fill="none" xmlns="http://www.w3.org/2000/svg">
<path d="M12.3513 0.546847C13.8503 0.546847 15.298 0.875395 16.6943 1.53249C17.3514 1.8405 17.8083 1.99451 18.065 1.99451C18.2498 1.99451 18.5476 1.94831 18.9582 1.8559C19.0917 1.8251 19.2406 1.8097 19.4049 1.8097C19.9388 1.8097 20.4059 2.05611 20.8063 2.54894C21.792 3.73992 22.2848 5.21839 22.2848 6.98433C22.2848 8.22665 21.8587 9.13529 21.0065 9.71025C20.5445 10.0183 20.026 10.1723 19.4511 10.1723C18.9274 10.1723 18.5014 10.0593 18.1728 9.83346C17.8443 9.60758 17.526 9.20716 17.218 8.63221C16.7765 7.8211 16.4171 7.24101 16.1399 6.89193C15.8627 6.53258 15.5239 6.20916 15.1235 5.92169C14.1276 5.22352 13.0854 4.87444 11.9971 4.87444C10.9396 4.87444 10.0977 5.25946 9.47142 6.02949C8.85539 6.78926 8.54738 7.81084 8.54738 9.09423C8.54738 10.8602 8.994 12.4772 9.88724 13.9454C11.0988 15.9065 12.8339 16.887 15.0927 16.887C15.9243 16.887 16.7457 16.7484 17.5568 16.4712C18.3782 16.1939 19.0147 15.8346 19.4665 15.3931C19.8566 15.0235 20.1749 14.8387 20.4213 14.8387C20.7807 14.8387 21.0887 15.0081 21.3453 15.3469C21.602 15.6755 21.7304 16.0759 21.7304 16.5482C21.7304 17.1437 21.5507 17.811 21.1913 18.5502C20.832 19.2895 20.4008 19.8696 19.8977 20.2905C19.6821 20.4651 19.2355 20.6191 18.5578 20.7525C18.1677 20.8244 17.6492 21.0144 17.0024 21.3224C15.4828 22.0513 13.9017 22.4158 12.2589 22.4158C10.5443 22.4158 8.83486 22.0308 7.13052 21.2608C5.14896 20.3675 3.58323 18.9969 2.43331 17.1488C1.30392 15.352 0.739233 13.4732 0.739233 11.5121C0.739233 9.23283 1.44766 7.15374 2.86453 5.27486C4.09658 3.64238 5.70339 2.39493 7.68494 1.53249C9.19421 0.875395 10.7497 0.546847 12.3513 0.546847ZM32.0796 6.64552C33.8661 6.64552 35.3805 7.09727 36.6228 8.00078C37.2799 8.48333 37.7368 9.03776 37.9935 9.66405C38.2604 10.2801 38.3939 11.1323 38.3939 12.2206L38.3631 14.5153C38.3631 16.1067 38.476 17.1385 38.7019 17.6108C38.8149 17.8367 38.9227 17.9804 39.0253 18.042C39.128 18.1036 39.3436 18.1601 39.6722 18.2114C40.0007 18.2628 40.165 18.4784 40.165 18.8583C40.165 19.3511 39.9648 19.8644 39.5644 20.3983C39.1742 20.9322 38.666 21.3788 38.0397 21.7382C37.2697 22.1899 36.4637 22.4158 35.6218 22.4158C34.5437 22.4158 33.6916 22.0462 33.0653 21.307C32.8497 21.04 32.6495 20.9066 32.4646 20.9066C32.2593 20.9066 31.9872 21.0349 31.6484 21.2916C30.6217 22.0411 29.4564 22.4158 28.1525 22.4158C26.8075 22.4158 25.7191 22.1283 24.8875 21.5534C24.3433 21.1735 23.9121 20.6807 23.5938 20.0749C23.2756 19.4589 23.1164 18.8172 23.1164 18.1498C23.1164 17.082 23.5476 16.1375 24.4101 15.3161C25.7551 14.0224 27.7674 13.3705 30.4472 13.3602C31.0426 13.3602 31.4174 13.3037 31.5714 13.1908C31.7254 13.0676 31.8024 12.7904 31.8024 12.3592C31.8024 11.2709 31.6895 10.4854 31.4636 10.0029C31.2377 9.51004 30.8681 9.26363 30.3547 9.26363C30.0467 9.26363 29.7695 9.35604 29.5231 9.54085C29.287 9.72565 28.9892 10.0645 28.6299 10.5573C27.7161 11.8612 26.7613 12.5132 25.7653 12.5132C25.2623 12.5132 24.8516 12.3643 24.5333 12.0666C24.215 11.7688 24.0559 11.3787 24.0559 10.8961C24.0559 10.4033 24.2509 9.91046 24.6411 9.41764C25.0415 8.92482 25.5805 8.4936 26.2582 8.12398C28.1165 7.13834 30.057 6.64552 32.0796 6.64552ZM31.0478 15.5625C30.596 15.5625 30.2007 15.7473 29.8619 16.1169C29.5334 16.4866 29.3691 16.928 29.3691 17.4414C29.3691 17.9342 29.4872 18.3346 29.7233 18.6427C29.9595 18.9404 30.2726 19.0893 30.6628 19.0893C31.4841 19.0893 31.8948 18.3962 31.8948 17.0102C31.8948 16.4455 31.8332 16.0656 31.71 15.8705C31.5971 15.6755 31.3763 15.5728 31.0478 15.5625ZM48.6508 6.76872C49.236 6.76872 49.5286 7.18454 49.5286 8.01618C49.5286 8.02645 49.5286 8.11372 49.5286 8.27799C49.5183 8.44226 49.5132 8.57574 49.5132 8.67841C49.5132 9.23283 49.6775 9.51004 50.006 9.51004C50.1806 9.51004 50.4526 9.2893 50.8223 8.84782C51.3767 8.21125 52.0749 7.70816 52.9168 7.33855C53.7587 6.95866 54.6211 6.76872 55.5041 6.76872C57.2187 6.76872 58.4097 7.39502 59.077 8.64761C59.3337 9.10963 59.5442 9.34064 59.7085 9.34064C59.8214 9.34064 60.0883 9.13529 60.5093 8.72461C61.844 7.42069 63.3584 6.76872 65.0525 6.76872C66.377 6.76872 67.4601 7.13321 68.302 7.86217C69.185 8.62194 69.6265 9.76159 69.6265 11.2811C69.6265 11.6097 69.6162 12.1641 69.5957 12.9444C69.5752 13.2113 69.5649 14.0173 69.5649 15.3623C69.5649 16.2247 69.5598 16.8305 69.5495 17.1796C69.5392 17.3952 69.5341 17.5492 69.5341 17.6416C69.5341 18.2987 69.7394 18.8737 70.1501 19.3665C70.3965 19.6642 70.5454 19.8644 70.5967 19.9671C70.6583 20.0595 70.6891 20.1879 70.6891 20.3521C70.6891 21.6663 69.1439 22.3234 66.0535 22.3234C64.688 22.3234 63.5843 22.1591 62.7424 21.8306C61.9108 21.502 61.4949 21.0708 61.4949 20.5369C61.4949 20.3316 61.5206 20.1776 61.5719 20.0749C61.6335 19.962 61.8338 19.6745 62.1726 19.2125C62.4908 18.7915 62.65 17.3901 62.65 15.0081C62.65 13.622 62.5524 12.6569 62.3574 12.1128C62.1315 11.4659 61.6797 11.1425 61.0021 11.1425C60.6633 11.1425 60.3604 11.2503 60.0935 11.4659C59.8368 11.6713 59.6674 11.9331 59.5853 12.2514C59.4928 12.621 59.4415 13.6066 59.4312 15.2083C59.462 16.9332 59.5134 17.9804 59.5853 18.35C59.6674 18.7197 59.9292 19.233 60.3707 19.8901C60.4734 20.0441 60.5247 20.2392 60.5247 20.4753C60.5247 21.6971 58.9282 22.308 55.7351 22.308C53.8151 22.308 52.5215 22.1643 51.8541 21.8768C51.3202 21.6509 51.0533 21.2505 51.0533 20.6755C51.0533 20.4189 51.0841 20.2392 51.1457 20.1365C51.2175 20.0338 51.4486 19.7977 51.8387 19.4281C52.0646 19.2125 52.2083 19.0123 52.2699 18.8275C52.3418 18.6324 52.3931 18.2833 52.4239 17.7802C52.4958 16.6508 52.5317 15.5112 52.5317 14.3613C52.5317 12.3489 52.0184 11.3427 50.9917 11.3427C50.2216 11.3427 49.7647 11.7739 49.621 12.6364C49.4978 13.4475 49.4362 14.6077 49.4362 16.1169C49.4362 17.2463 49.4567 17.9856 49.4978 18.3346C49.5491 18.6837 49.6775 19.0482 49.8828 19.4281C50.1292 19.8696 50.2524 20.2289 50.2524 20.5061C50.2524 21.1735 49.7853 21.6355 48.851 21.8922C47.8345 22.1694 46.7154 22.308 45.4936 22.308C43.9125 22.308 42.7523 22.1848 42.0131 21.9384C41.2738 21.6817 40.9042 21.2813 40.9042 20.7371C40.9042 20.5318 40.9504 20.3573 41.0428 20.2135C41.1455 20.0698 41.3714 19.8439 41.7205 19.5359C42.1825 19.1149 42.4494 18.5348 42.5213 17.7956C42.6342 16.5225 42.6907 15.2032 42.6907 13.8376C42.6907 12.8623 42.6394 12.1846 42.5367 11.8047C42.4443 11.4146 42.2389 11.1014 41.9207 10.8653C41.6127 10.6292 41.4124 10.4495 41.32 10.3263C41.2379 10.2031 41.1968 10.0337 41.1968 9.81806C41.1968 9.13016 41.7359 8.586 42.8139 8.18559C45.4115 7.25128 47.3571 6.77899 48.6508 6.76872ZM79.0671 6.73792C79.6934 6.73792 80.0836 6.79439 80.2376 6.90733C80.3916 7.01 80.4686 7.27695 80.4686 7.70816C80.4686 8.08805 80.5918 8.27799 80.8382 8.27799C80.9409 8.27799 81.2848 8.08291 81.87 7.69276C82.3115 7.39502 82.8711 7.14861 83.5487 6.95353C84.2366 6.74819 84.8578 6.64552 85.4122 6.64552C86.7161 6.64552 87.8814 7.09727 88.9082 8.00078C89.6885 8.68868 90.2942 9.55625 90.7254 10.6035C91.1772 11.7021 91.4031 12.8571 91.4031 14.0686C91.4031 16.656 90.5304 18.7864 88.7849 20.4599C87.44 21.7639 85.9102 22.4158 84.1955 22.4158C83.3228 22.4158 82.4245 22.2105 81.5004 21.7998C81.3156 21.7177 81.1667 21.6766 81.0538 21.6766C80.7458 21.6766 80.5918 21.9846 80.5918 22.6006C80.5918 23.4117 80.8639 23.997 81.408 24.3563C81.9111 24.6951 82.2089 24.921 82.3013 25.0339C82.4039 25.1571 82.4553 25.3573 82.4553 25.6346C82.4553 26.2506 82.1113 26.7229 81.4234 27.0514C80.7355 27.3902 79.7653 27.5596 78.5127 27.5596C76.2847 27.5596 74.334 27.113 72.6604 26.2198C71.8083 25.768 71.3822 25.2085 71.3822 24.5411C71.3822 24.2331 71.4438 23.997 71.567 23.8327C71.7005 23.6787 71.952 23.5144 72.3216 23.3399C72.8555 23.0934 73.1789 22.6468 73.2919 22C73.4151 21.3532 73.5075 19.4948 73.5691 16.425C73.4972 13.8992 73.4048 12.4824 73.2919 12.1744C73.2508 12.0717 73.1892 12.005 73.1071 11.9742C73.0352 11.9434 72.7836 11.8869 72.3524 11.8047C72.0239 11.7431 71.7569 11.5943 71.5516 11.3581C71.3462 11.1117 71.2436 10.8191 71.2436 10.4803C71.2436 10.0696 71.3873 9.71025 71.6748 9.40224C71.9623 9.08396 72.4294 8.77595 73.0762 8.4782C75.5917 7.33855 77.5887 6.75846 79.0671 6.73792ZM80.5918 12.5594L80.3608 16.7946C80.3505 16.9691 80.3454 17.1385 80.3454 17.3028C80.3454 17.6211 80.484 17.8778 80.7612 18.0728C81.0384 18.2679 81.408 18.3654 81.87 18.3654C83.2869 18.3654 83.9953 17.2001 83.9953 14.8695C83.9953 13.3602 83.6976 12.2976 83.1021 11.6815C82.7325 11.3017 82.291 11.1117 81.7776 11.1117C81.0487 11.1117 80.6534 11.5943 80.5918 12.5594ZM100.967 7.53876V15.8859C100.967 17.6724 101.557 18.5656 102.738 18.5656C103.036 18.5656 103.328 18.4835 103.616 18.3192C103.903 18.1447 104.103 17.9342 104.216 17.6878C104.442 17.195 104.555 16.0964 104.555 14.3921C104.555 12.7083 104.499 11.5583 104.386 10.9423C104.345 10.6856 104.273 10.5008 104.17 10.3879C104.068 10.2647 103.872 10.1261 103.585 9.97207C103 9.66405 102.707 9.2739 102.707 8.80161C102.707 8.16505 103.21 7.72357 104.216 7.47715C106.126 7.00487 108.01 6.76872 109.868 6.76872C110.905 6.76872 111.424 7.31801 111.424 8.4166C111.424 8.52953 111.419 8.76054 111.409 9.10963C111.388 9.60245 111.373 10.2031 111.362 10.9115V17.7032C111.362 18.0523 111.66 18.3706 112.256 18.6581C112.759 18.9045 113.01 19.2638 113.01 19.7361C113.01 20.6601 111.917 21.3737 109.73 21.8768C108.446 22.1745 107.204 22.3234 106.003 22.3234C105.51 22.3234 105.171 22.2669 104.986 22.154C104.812 22.0411 104.709 21.8203 104.678 21.4918C104.627 20.8552 104.432 20.5369 104.093 20.5369C103.97 20.5369 103.857 20.5677 103.754 20.6293C103.652 20.6807 103.339 20.886 102.815 21.2454C101.778 21.9538 100.664 22.308 99.473 22.308C97.5017 22.308 96.1105 21.7382 95.2994 20.5985C94.6115 19.6437 94.2676 18.0369 94.2676 15.7781C94.2676 14.9362 94.2727 14.2175 94.283 13.622C94.283 13.2729 94.283 13.0368 94.283 12.9136C94.283 12.0306 94.2009 11.3838 94.0366 10.9731C93.8826 10.5522 93.5951 10.2236 93.1741 9.98747C92.7737 9.78212 92.517 9.61785 92.4041 9.49464C92.3014 9.37144 92.2501 9.20203 92.2501 8.98642C92.2501 8.20612 92.8405 7.68763 94.0212 7.43095C96.0335 6.98947 98.0459 6.76872 100.058 6.76872C100.664 6.76872 100.967 7.0254 100.967 7.53876ZM120.064 6.66092C120.577 6.66092 121.414 6.77386 122.574 6.99973C122.81 7.0408 123.005 7.06134 123.159 7.06134C123.334 7.06134 123.673 6.96893 124.176 6.78412C124.412 6.69172 124.612 6.64552 124.776 6.64552C125.249 6.64552 125.726 6.9484 126.209 7.55416C126.599 8.03671 126.917 8.56547 127.163 9.14043C127.41 9.71539 127.533 10.2133 127.533 10.6343C127.533 11.045 127.389 11.3889 127.102 11.6661C126.814 11.9331 126.455 12.0666 126.024 12.0666C125.664 12.0666 125.341 11.9793 125.054 11.8047C124.776 11.6302 124.325 11.2452 123.698 10.6497C123.041 10.0131 122.497 9.69485 122.066 9.69485C121.778 9.69485 121.527 9.80266 121.311 10.0183C121.106 10.2236 121.003 10.47 121.003 10.7575C121.003 11.2606 121.486 11.7329 122.451 12.1744C124.186 12.9547 125.516 13.8068 126.44 14.7309C127.22 15.5112 127.61 16.466 127.61 17.5954C127.61 19.0225 126.984 20.2135 125.731 21.1684C124.653 22 123.334 22.4158 121.773 22.4158C121.373 22.4158 120.644 22.3491 119.586 22.2156C118.59 22.1027 118.031 22.0462 117.908 22.0462C117.774 22.0462 117.62 22.0616 117.446 22.0924C117.148 22.1335 116.932 22.154 116.799 22.154C116.316 22.154 115.936 22.0308 115.659 21.7844C115.238 21.4045 114.848 20.809 114.489 19.9979C114.129 19.1765 113.95 18.4732 113.95 17.888C113.95 16.9434 114.319 16.4712 115.059 16.4712C115.346 16.4712 115.608 16.5687 115.844 16.7638C116.09 16.9486 116.599 17.4517 117.369 18.273C117.79 18.7248 118.139 19.0379 118.416 19.2125C118.693 19.3768 118.991 19.4589 119.309 19.4589C119.648 19.4589 119.92 19.3716 120.125 19.1971C120.331 19.0123 120.433 18.771 120.433 18.4732C120.433 18.0112 120.038 17.5903 119.248 17.2104C117.594 16.3993 116.398 15.5625 115.659 14.7001C114.93 13.8376 114.566 12.8417 114.566 11.7123C114.566 10.4906 114.94 9.43818 115.69 8.5552C116.758 7.29235 118.216 6.66092 120.064 6.66092ZM140.701 0.546847C142.2 0.546847 143.647 0.875395 145.044 1.53249C145.701 1.8405 146.158 1.99451 146.414 1.99451C146.599 1.99451 146.897 1.94831 147.308 1.8559C147.441 1.8251 147.59 1.8097 147.754 1.8097C148.288 1.8097 148.755 2.05611 149.156 2.54894C150.141 3.73992 150.634 5.21839 150.634 6.98433C150.634 8.22665 150.208 9.13529 149.356 9.71025C148.894 10.0183 148.375 10.1723 147.8 10.1723C147.277 10.1723 146.851 10.0593 146.522 9.83346C146.194 9.60758 145.875 9.20716 145.567 8.63221C145.126 7.8211 144.766 7.24101 144.489 6.89193C144.212 6.53258 143.873 6.20916 143.473 5.92169C142.477 5.22352 141.435 4.87444 140.346 4.87444C139.289 4.87444 138.447 5.25946 137.821 6.02949C137.205 6.78926 136.897 7.81084 136.897 9.09423C136.897 10.8602 137.343 12.4772 138.237 13.9454C139.448 15.9065 141.183 16.887 143.442 16.887C144.274 16.887 145.095 16.7484 145.906 16.4712C146.727 16.1939 147.364 15.8346 147.816 15.3931C148.206 15.0235 148.524 14.8387 148.771 14.8387C149.13 14.8387 149.438 15.0081 149.695 15.3469C149.951 15.6755 150.08 16.0759 150.08 16.5482C150.08 17.1437 149.9 17.811 149.541 18.5502C149.181 19.2895 148.75 19.8696 148.247 20.2905C148.031 20.4651 147.585 20.6191 146.907 20.7525C146.517 20.8244 145.998 21.0144 145.352 21.3224C143.832 22.0513 142.251 22.4158 140.608 22.4158C138.894 22.4158 137.184 22.0308 135.48 21.2608C133.498 20.3675 131.933 18.9969 130.783 17.1488C129.653 15.352 129.089 13.4732 129.089 11.5121C129.089 9.23283 129.797 7.15374 131.214 5.27486C132.446 3.64238 134.053 2.39493 136.034 1.53249C137.544 0.875395 139.099 0.546847 140.701 0.546847ZM158.827 6.75332C159.371 6.75332 159.7 6.83033 159.813 6.98433C159.936 7.13834 160.044 7.63116 160.136 8.4628C160.188 8.91455 160.347 9.14043 160.614 9.14043C160.819 9.14043 161.014 8.99156 161.199 8.69381C162.02 7.41042 163.093 6.76872 164.418 6.76872C165.352 6.76872 166.117 7.0716 166.712 7.67736C167 7.97511 167.236 8.36013 167.421 8.83241C167.606 9.29444 167.698 9.74106 167.698 10.1723C167.698 10.6548 167.585 11.1528 167.359 11.6661C167.133 12.1692 166.841 12.585 166.481 12.9136C165.824 13.5399 165.018 13.853 164.063 13.853C163.54 13.853 163.098 13.7606 162.739 13.5758C162.39 13.391 161.928 13.0163 161.353 12.4516C161.137 12.236 160.937 12.1282 160.752 12.1282C160.465 12.1282 160.275 12.2924 160.183 12.621C160.1 12.9393 160.059 13.6169 160.059 14.6539C160.059 16.2042 160.116 17.2617 160.229 17.8264C160.301 18.1344 160.398 18.35 160.521 18.4732C160.655 18.5862 160.932 18.7043 161.353 18.8275C162.277 19.1047 162.739 19.5872 162.739 20.2751C162.739 20.6961 162.59 21.0657 162.292 21.384C161.995 21.692 161.599 21.8973 161.107 22C160.121 22.2053 158.673 22.308 156.764 22.308C154.946 22.308 153.565 22.1489 152.621 21.8306C151.779 21.5431 151.358 21.0452 151.358 20.3367C151.358 19.8028 151.666 19.3254 152.282 18.9045C152.58 18.7094 152.785 18.5348 152.898 18.3808C153.011 18.2166 153.088 17.9958 153.129 17.7186C153.293 16.7843 153.375 15.0543 153.375 12.5286C153.375 12.0666 153.324 11.738 153.221 11.5429C153.119 11.3376 152.913 11.1733 152.605 11.0501C151.876 10.7626 151.512 10.3468 151.512 9.80266C151.512 9.30984 151.763 8.88888 152.267 8.5398C152.77 8.18045 153.612 7.82624 154.792 7.47715C156.373 7.00487 157.718 6.76359 158.827 6.75332ZM177.293 7.72357V16.6714C177.293 17.3798 177.354 17.8983 177.477 18.2268C177.611 18.5554 177.873 18.8583 178.263 19.1355C178.581 19.3613 178.792 19.5564 178.894 19.7207C179.007 19.8747 179.064 20.0749 179.064 20.3213C179.064 21.6458 177.385 22.308 174.028 22.308C172.221 22.308 170.788 22.1643 169.731 21.8768C169.372 21.7741 169.079 21.5944 168.853 21.3378C168.637 21.0811 168.53 20.7885 168.53 20.4599C168.53 20.1827 168.586 19.9671 168.699 19.8131C168.812 19.6591 169.1 19.4127 169.562 19.0739C169.88 18.8377 170.106 18.4527 170.239 17.9188C170.373 17.3849 170.439 16.5892 170.439 15.5317C170.439 15.1929 170.414 14.5615 170.362 13.6374C170.321 12.7031 170.29 12.159 170.27 12.005C170.208 11.584 169.921 11.2606 169.408 11.0347C168.771 10.7575 168.453 10.3468 168.453 9.80266C168.453 9.15583 168.869 8.67327 169.7 8.35499C170.85 7.91351 172.082 7.53876 173.396 7.23074C174.71 6.92273 175.727 6.76872 176.446 6.76872C177.01 6.76872 177.293 7.087 177.293 7.72357ZM174.243 0.978066C175.137 0.978066 175.845 1.14747 176.369 1.48629C176.892 1.81484 177.154 2.26146 177.154 2.82615C177.154 3.61672 176.759 4.24301 175.968 4.70503C174.716 5.434 173.201 5.79848 171.425 5.79848C170.676 5.79848 170.08 5.65474 169.639 5.36726C169.043 4.99764 168.745 4.48429 168.745 3.82719C168.745 2.94422 169.377 2.25119 170.64 1.7481C171.923 1.23474 173.124 0.978066 174.243 0.978066ZM188.35 1.90211L188.15 7.90837C188.15 8.05211 188.15 8.16505 188.15 8.24719C188.15 8.45253 188.217 8.5552 188.35 8.5552C188.422 8.5552 188.628 8.4166 188.966 8.13938C190.168 7.15374 191.492 6.66092 192.94 6.66092C194.377 6.66092 195.645 7.17941 196.744 8.21639C198.12 9.52031 198.807 11.2195 198.807 13.314C198.807 16.3017 197.693 18.6889 195.465 20.4753C193.864 21.769 191.985 22.4158 189.829 22.4158C188.761 22.4158 187.796 22.2772 186.934 22C186.081 21.7331 185.147 21.271 184.131 20.6139C183.977 20.5215 183.853 20.4753 183.761 20.4753C183.648 20.4753 183.33 20.5729 182.806 20.7679C182.539 20.8706 182.226 20.922 181.867 20.922C181.23 20.922 180.912 20.7166 180.912 20.3059C180.912 20.1725 180.938 20.0184 180.989 19.8439C181.194 19.1765 181.333 18.35 181.405 17.3644C181.477 16.3788 181.512 14.8181 181.512 12.6826V8.432C181.512 7.37448 181.471 6.71225 181.389 6.44531C181.307 6.17836 181.076 5.96789 180.696 5.81388C180.162 5.588 179.793 5.36726 179.587 5.15165C179.382 4.92577 179.279 4.64343 179.279 4.30461C179.279 3.61672 180.013 2.94422 181.482 2.28712C182.283 1.93804 183.278 1.63516 184.469 1.37848C185.671 1.11154 186.697 0.978066 187.55 0.978066C188.094 0.978066 188.361 1.28608 188.35 1.90211ZM189.675 11.2965C189.12 11.2965 188.72 11.4865 188.474 11.8663C188.279 12.1538 188.181 12.7391 188.181 13.622C188.181 16.0348 188.263 17.6621 188.427 18.504C188.571 19.2843 189.007 19.6745 189.736 19.6745C190.486 19.6745 191.056 19.3562 191.446 18.7197C191.836 18.0831 192.031 17.1591 192.031 15.9475C192.031 14.1611 191.703 12.8571 191.045 12.0358C190.666 11.5635 190.209 11.3171 189.675 11.2965Z" fill="white"/>
</svg>
